<svg id="Capa_1" enable-background="new 0 0 512 512" height="512" viewBox="0 0 512 512" width="512" xmlns="http://www.w3.org/2000/svg"><g><path d="m443.143 103.286v-73.286h34.428v-30h-443.142v30h34.428v73.286h-68.857v408.714h512v-408.714zm-413.143 378.714v-348.714h38.857v348.714zm211-107.714v107.714h-56.389v-107.714zm86.389 0v107.714h-56.389v-107.714zm85.754 107.714h-55.754v-107.714h16.897v-30h-236.572v30h16.897v107.714h-55.754v-452h314.286zm68.857 0h-38.857v-348.714h38.857z"/><path d="m236.571 206.571h-98.857v98.857h98.857zm-30 68.858h-38.857v-38.857h38.857z"/><path d="m374.286 206.571h-98.857v98.857h98.857zm-30 68.858h-38.857v-38.857h38.857z"/><path d="m236.571 68.857h-98.857v98.857h98.857zm-30 68.857h-38.857v-38.857h38.857z"/><path d="m374.286 68.857h-98.857v98.857h98.857zm-30 68.857h-38.857v-38.857h38.857z"/></g></svg>