<svg id="Capa_1" enable-background="new 0 0 512 512" height="512" viewBox="0 0 512 512" width="512" xmlns="http://www.w3.org/2000/svg"><g><path d="m153.382 202.387c-2.459-18.353-18.107-32.097-36.714-32.097-19.095 0-34.823 14.186-36.835 33.097v22.348c11.274 3.682 23.301 5.681 35.788 5.681 13.218 0 25.921-2.237 37.761-6.343z"/><path d="m136 120.928c0-10.676-8.672-19.361-19.332-19.361s-19.332 8.685-19.332 19.361 8.672 19.361 19.332 19.361 19.332-8.685 19.332-19.361z"/><path d="m512 115.708c0-63.802-51.868-115.708-115.622-115.708s-115.622 51.906-115.622 115.708c0 19.861 5.028 38.569 13.875 54.917l-38.355 38.355-38.717-38.717c8.726-16.263 13.684-34.84 13.684-54.555.001-63.802-51.867-115.708-115.621-115.708s-115.622 51.906-115.622 115.708c0 39.358 19.743 74.183 49.833 95.095v-8.146c0-.449.02-.898.061-1.346 1.497-16.62 9.103-32.01 21.416-43.336 2.286-2.103 4.7-4.028 7.22-5.776-6.99-8.52-11.193-19.413-11.193-31.271 0-27.218 22.13-49.361 49.332-49.361s49.331 22.143 49.331 49.361c0 11.854-4.2 22.743-11.186 31.262 15.428 10.677 26.223 27.695 28.473 47.594.063.56.095 1.122.095 1.686v7.931c5.921-4.3 11.42-9.147 16.423-14.467l41.471 41.471v45.152c-56.693 7.383-100.621 56.02-100.621 114.735 0 38.888 19.27 73.357 48.756 94.347v-8.035c0-.41.017-.82.05-1.229 1.376-16.735 8.932-32.252 21.276-43.692 2.34-2.169 4.814-4.153 7.4-5.947-6.99-8.52-11.192-19.412-11.192-31.27 0-27.218 22.13-49.361 49.332-49.361s49.332 22.144 49.332 49.361c0 11.857-4.202 22.75-11.192 31.27 2.586 1.794 5.06 3.778 7.4 5.947 12.344 11.44 19.9 26.958 21.275 43.692.034.409.05.819.05 1.229v8.035c29.486-20.989 48.756-55.458 48.756-94.347 0-58.715-43.929-107.353-100.622-114.735v-45.152l41.185-41.184c5.205 5.499 10.941 10.49 17.128 14.886v-8.043c0-.506.025-1.011.077-1.515 2.058-20.275 12.896-37.603 28.532-48.404-6.964-8.512-11.151-19.384-11.151-31.217 0-27.218 22.13-49.361 49.332-49.361s49.332 22.143 49.332 49.361c0 11.833-4.186 22.705-11.151 31.217 15.636 10.801 26.474 28.129 28.532 48.404.051.503.077 1.009.077 1.515v8.043c29.527-20.984 48.831-55.478 48.831-94.399z"/><path d="m433.168 202.886c-2.237-18.632-17.932-32.597-36.79-32.597s-34.553 13.965-36.79 32.597v22.522c11.562 3.893 23.933 6.007 36.79 6.007s25.228-2.113 36.79-6.007z"/><path d="m415.71 120.928c0-10.676-8.672-19.361-19.332-19.361s-19.332 8.685-19.332 19.361 8.672 19.361 19.332 19.361 19.332-8.685 19.332-19.361z"/><path d="m293.143 483.272c-1.836-18.8-17.92-33.445-36.866-33.445-18.945 0-35.029 14.645-36.866 33.445v22.696c11.583 3.91 23.981 6.032 36.866 6.032s25.282-2.122 36.866-6.032z"/><path d="m275.609 400.466c0-10.676-8.672-19.361-19.332-19.361s-19.332 8.686-19.332 19.361 8.672 19.361 19.332 19.361 19.332-8.685 19.332-19.361z"/></g></svg>